<?xml version="1.0" encoding="utf-8"?>
<svg viewBox="4.97 3.195 100.007 100.007" xmlns="http://www.w3.org/2000/svg" xmlns:bx="https://boxy-svg.com">
  <defs>
    <linearGradient id="gradient-0" gradientUnits="userSpaceOnUse" x1="77.253" y1="69.528" x2="77.253" y2="169.528" gradientTransform="matrix(0.699657, -0.71448, 0.497643, 0.487319, -10.824087, 141.346329)">
      <stop offset="0" style="stop-color: rgba(255, 0, 0, 1)"/>
      <stop offset="1" style="stop-color: rgb(145, 0, 0);"/>
    </linearGradient>
  </defs>
  <g transform="matrix(1, 0, 0, 1, -18.586981, -97.034904)">
    <path d="M 127.253 69.528 L 127.253 169.528 L 27.253 169.528 L 127.253 69.528 Z" style="fill: url(#gradient-0);" transform="matrix(1, 0.00007, -0.00007, 1, -3.684506, 30.699579)" bx:shape="triangle 27.253 69.528 100 100 1 0 1@f614e0fb"/>
    <path d="M 65.653 163.003 C 66.793 163.316 67.676 163.893 68.303 164.733 C 68.923 165.573 69.233 166.6 69.233 167.813 C 69.233 169.493 68.633 170.81 67.433 171.763 C 66.226 172.716 64.57 173.193 62.463 173.193 L 55.233 173.193 C 54.693 173.193 54.27 173.043 53.963 172.743 C 53.656 172.443 53.503 172.023 53.503 171.483 L 53.503 155.163 C 53.503 154.623 53.656 154.203 53.963 153.903 C 54.27 153.603 54.693 153.453 55.233 153.453 L 62.183 153.453 C 64.236 153.453 65.846 153.906 67.013 154.813 C 68.18 155.72 68.763 156.983 68.763 158.603 C 68.763 159.65 68.486 160.556 67.933 161.323 C 67.386 162.09 66.626 162.65 65.653 163.003 Z M 57.033 156.253 L 57.033 161.773 L 61.593 161.773 C 64.073 161.773 65.313 160.846 65.313 158.993 C 65.313 158.06 65.006 157.37 64.393 156.923 C 63.78 156.476 62.846 156.253 61.593 156.253 L 57.033 156.253 Z M 62.073 170.393 C 63.38 170.393 64.33 170.16 64.923 169.693 C 65.523 169.226 65.823 168.5 65.823 167.513 C 65.823 166.52 65.52 165.78 64.913 165.293 C 64.306 164.813 63.36 164.573 62.073 164.573 L 57.033 164.573 L 57.033 170.393 L 62.073 170.393 Z M 74.356 173.193 C 73.816 173.193 73.393 173.043 73.086 172.743 C 72.78 172.443 72.626 172.023 72.626 171.483 L 72.626 155.163 C 72.626 154.623 72.78 154.203 73.086 153.903 C 73.393 153.603 73.816 153.453 74.356 153.453 L 84.466 153.453 C 85.006 153.453 85.426 153.573 85.726 153.813 C 86.026 154.06 86.176 154.406 86.176 154.853 C 86.176 155.32 86.026 155.68 85.726 155.933 C 85.426 156.186 85.006 156.313 84.466 156.313 L 76.156 156.313 L 76.156 161.743 L 83.906 161.743 C 84.446 161.743 84.866 161.863 85.166 162.103 C 85.466 162.35 85.616 162.706 85.616 163.173 C 85.616 163.62 85.466 163.963 85.166 164.203 C 84.866 164.45 84.446 164.573 83.906 164.573 L 76.156 164.573 L 76.156 170.333 L 84.466 170.333 C 85.006 170.333 85.426 170.46 85.726 170.713 C 86.026 170.966 86.176 171.326 86.176 171.793 C 86.176 172.24 86.026 172.586 85.726 172.833 C 85.426 173.073 85.006 173.193 84.466 173.193 L 74.356 173.193 Z M 95.616 173.333 C 95.056 173.333 94.612 173.17 94.286 172.843 C 93.959 172.516 93.796 172.083 93.796 171.543 L 93.796 156.423 L 88.696 156.423 C 87.576 156.423 87.016 155.926 87.016 154.933 C 87.016 153.946 87.576 153.453 88.696 153.453 L 102.496 153.453 C 103.616 153.453 104.176 153.946 104.176 154.933 C 104.176 155.926 103.616 156.423 102.496 156.423 L 97.406 156.423 L 97.406 171.543 C 97.406 172.083 97.242 172.516 96.916 172.843 C 96.589 173.17 96.156 173.333 95.616 173.333 Z M 121.763 171.033 C 121.876 171.28 121.933 171.523 121.933 171.763 C 121.933 172.196 121.76 172.56 121.413 172.853 C 121.066 173.153 120.67 173.303 120.223 173.303 C 119.923 173.303 119.643 173.223 119.383 173.063 C 119.123 172.91 118.916 172.663 118.763 172.323 L 117.083 168.573 L 107.233 168.573 L 105.553 172.323 C 105.4 172.663 105.193 172.91 104.933 173.063 C 104.673 173.223 104.383 173.303 104.063 173.303 C 103.636 173.303 103.246 173.153 102.893 172.853 C 102.54 172.56 102.363 172.196 102.363 171.763 C 102.363 171.523 102.416 171.28 102.523 171.033 L 110.253 154.433 C 110.42 154.06 110.676 153.776 111.023 153.583 C 111.37 153.383 111.74 153.283 112.133 153.283 C 112.526 153.283 112.893 153.383 113.233 153.583 C 113.58 153.776 113.836 154.06 114.003 154.433 L 121.763 171.033 Z M 112.163 157.453 L 108.463 165.773 L 115.853 165.773 L 112.163 157.453 Z" style="fill: rgb(255, 255, 255); white-space: pre;" transform="matrix(0.707068, -0.707146, 0.707146, 0.707068, -89.787139, 109.867605)"/>
  </g>
</svg>