<?xml version="1.0" encoding="utf-8"?>
<svg viewBox="1.4819999933242798 -0.7319999933242798 747.0120239257812 168.38299560546875" xmlns="http://www.w3.org/2000/svg">
  <defs>
    <linearGradient id="gradient-6" gradientUnits="userSpaceOnUse" x1="238.016" y1="-19.153" x2="238.016" y2="147.315" gradientTransform="matrix(-0.808711, -0.0604, 0.000004, -0.805844, 386.973592, 118.655804)">
      <stop offset="0" style="stop-color: rgb(0, 144, 236);"/>
      <stop offset="1" style="stop-color: rgb(116, 201, 255);"/>
    </linearGradient>
  </defs>
  <g transform="matrix(1, 0, 0, 1, 121.579048, -98.479034)">
    <g transform="matrix(1, 0, 0, 1, -138.383087, -533.120544)">
      <ellipse transform="matrix(1, -0.000005, 0.000005, 1, -87.578902, 663.770865)" cx="193.022" cy="51.967" rx="67.5" ry="67.5" style="fill: url(#gradient-6); stroke: rgb(255, 255, 255); stroke-width: 5;"/>
      <path d="M 99.014 686.516 L 112.673 686.516 C 112.137 687.433 111.869 688.548 111.869 689.862 L 111.869 699.407 L 99.014 699.407 Z" style="fill: rgb(169, 234, 141);"/>
      <path d="M 137.537 753.907 C 139.346 754.072 140.641 754.547 141.42 755.331 C 142.204 756.11 142.596 757.198 142.596 758.597 C 142.596 760.242 141.957 761.495 140.679 762.356 C 139.406 763.223 137.537 763.574 135.068 763.409 L 131.737 763.163 C 125.073 762.669 120.096 760.635 116.805 757.058 C 113.514 753.477 111.869 748.19 111.869 741.197 L 111.891 725.063 L 124.331 725.063 L 124.332 742.061 C 124.332 745.927 125.136 748.766 126.743 750.576 C 128.345 752.386 130.791 753.414 134.081 753.661 L 137.537 753.907 Z M 111.869 689.862 C 111.869 687.97 112.426 686.489 113.539 685.419 C 114.647 684.35 116.147 683.815 118.039 683.815 C 119.931 683.815 121.453 684.35 122.605 685.419 C 123.757 686.489 124.332 687.97 124.332 689.862 L 124.332 702.572 L 136.549 702.572 C 138.277 702.572 139.612 703.002 140.556 703.864 C 141.504 704.73 141.979 705.904 141.979 707.385 C 141.979 708.948 141.504 710.141 140.556 710.963 C 139.612 711.786 138.277 712.197 136.549 712.197 L 132.597 712.197 L 132.597 712.176 L 111.889 712.176 L 111.869 689.862 Z" style="white-space: pre; fill: rgb(255, 255, 255);"/>
      <path d="M 111.889 712.175 L 111.889 725.067 L 97.677 725.067 C 98.57 722.349 99.017 719.169 99.017 715.526 L 99.017 712.175 Z" style="fill: rgb(218, 183, 247);"/>
      <path d="M 76.804 727.99 C 80.095 727.743 82.541 726.715 84.143 724.905 C 85.75 723.095 86.553 720.257 86.553 716.39 L 86.553 699.406 L 99.017 699.406 L 99.017 715.526 C 99.017 722.519 97.372 727.806 94.081 731.387 C 90.79 734.964 85.813 736.998 79.149 737.492 L 75.817 737.738 C 73.349 737.903 71.479 737.552 70.207 736.685 C 68.929 735.824 68.29 734.571 68.29 732.926 C 68.29 731.527 68.682 730.439 69.466 729.66 C 70.245 728.876 71.539 728.401 73.349 728.237 Z M 74.336 686.527 C 72.609 686.527 71.274 686.115 70.33 685.293 C 69.381 684.47 68.907 683.277 68.907 681.714 C 68.907 680.233 69.381 679.059 70.33 678.193 C 71.274 677.331 72.609 676.901 74.336 676.901 L 86.553 676.901 L 86.553 664.191 C 86.553 662.299 87.129 660.818 88.281 659.748 C 89.433 658.679 90.955 658.144 92.847 658.144 C 94.739 658.144 96.239 658.679 97.347 659.748 C 98.46 660.818 99.017 662.299 99.017 664.191 L 99.017 686.515 L 78.734 686.515 L 78.734 686.527 Z" style="white-space: pre; fill: rgb(255, 255, 255);"/>
    </g>
    <path d="M 125.534 213.666 L 125.534 213.666 C 129.034 213.966 130.784 215.566 130.784 218.466 L 130.784 218.466 L 130.784 218.466 C 130.784 220.166 130.161 221.443 128.914 222.296 L 128.914 222.296 L 128.914 222.296 C 127.661 223.143 125.784 223.466 123.284 223.266 L 123.284 223.266 L 119.234 222.966 L 119.234 222.966 C 111.234 222.366 105.334 219.966 101.534 215.766 L 101.534 215.766 L 101.534 215.766 C 97.734 211.566 95.834 205.216 95.834 196.716 L 95.834 196.716 L 95.834 159.066 L 85.784 159.066 L 85.784 159.066 C 84.084 159.066 82.757 158.643 81.804 157.796 L 81.804 157.796 L 81.804 157.796 C 80.857 156.943 80.384 155.816 80.384 154.416 L 80.384 154.416 L 80.384 154.416 C 80.384 152.916 80.857 151.716 81.804 150.816 L 81.804 150.816 L 81.804 150.816 C 82.757 149.916 84.084 149.466 85.784 149.466 L 85.784 149.466 L 95.834 149.466 L 95.834 132.516 L 95.834 132.516 C 95.834 130.616 96.384 129.143 97.484 128.096 L 97.484 128.096 L 97.484 128.096 C 98.584 127.043 100.084 126.516 101.984 126.516 L 101.984 126.516 L 101.984 126.516 C 103.784 126.516 105.234 127.043 106.334 128.096 L 106.334 128.096 L 106.334 128.096 C 107.434 129.143 107.984 130.616 107.984 132.516 L 107.984 132.516 L 107.984 149.466 L 124.634 149.466 L 124.634 149.466 C 126.234 149.466 127.507 149.916 128.454 150.816 L 128.454 150.816 L 128.454 150.816 C 129.407 151.716 129.884 152.916 129.884 154.416 L 129.884 154.416 L 129.884 154.416 C 129.884 155.816 129.407 156.943 128.454 157.796 L 128.454 157.796 L 128.454 157.796 C 127.507 158.643 126.234 159.066 124.634 159.066 L 124.634 159.066 L 107.984 159.066 L 107.984 197.316 L 107.984 197.316 C 107.984 202.816 109.107 206.789 111.354 209.236 L 111.354 209.236 L 111.354 209.236 C 113.607 211.689 116.984 213.066 121.484 213.366 L 121.484 213.366 L 125.534 213.666 Z M 177.633 147.666 L 177.633 147.666 C 195.933 147.666 205.083 157.266 205.083 176.466 L 205.083 176.466 L 205.083 217.266 L 205.083 217.266 C 205.083 219.066 204.557 220.516 203.503 221.616 L 203.503 221.616 L 203.503 221.616 C 202.457 222.716 201.033 223.266 199.233 223.266 L 199.233 223.266 L 199.233 223.266 C 197.433 223.266 195.983 222.716 194.883 221.616 L 194.883 221.616 L 194.883 221.616 C 193.783 220.516 193.233 219.066 193.233 217.266 L 193.233 217.266 L 193.233 210.066 L 193.233 210.066 C 191.333 214.366 188.433 217.689 184.533 220.036 L 184.533 220.036 L 184.533 220.036 C 180.633 222.389 176.133 223.566 171.033 223.566 L 171.033 223.566 L 171.033 223.566 C 166.333 223.566 162.007 222.616 158.053 220.716 L 158.053 220.716 L 158.053 220.716 C 154.107 218.816 150.983 216.166 148.683 212.766 L 148.683 212.766 L 148.683 212.766 C 146.383 209.366 145.233 205.616 145.233 201.516 L 145.233 201.516 L 145.233 201.516 C 145.233 196.016 146.633 191.743 149.433 188.696 L 149.433 188.696 L 149.433 188.696 C 152.233 185.643 156.833 183.443 163.233 182.096 L 163.233 182.096 L 163.233 182.096 C 169.633 180.743 178.533 180.066 189.933 180.066 L 189.933 180.066 L 193.233 180.066 L 193.233 175.116 L 193.233 175.116 C 193.233 169.116 192.007 164.716 189.553 161.916 L 189.553 161.916 L 189.553 161.916 C 187.107 159.116 183.133 157.716 177.633 157.716 L 177.633 157.716 L 177.633 157.716 C 170.833 157.716 163.933 159.566 156.933 163.266 L 156.933 163.266 L 156.933 163.266 C 154.233 164.966 152.333 165.816 151.233 165.816 L 151.233 165.816 L 151.233 165.816 C 150.033 165.816 149.033 165.366 148.233 164.466 L 148.233 164.466 L 148.233 164.466 C 147.433 163.566 147.033 162.416 147.033 161.016 L 147.033 161.016 L 147.033 161.016 C 147.033 159.616 147.46 158.393 148.313 157.346 L 148.313 157.346 L 148.313 157.346 C 149.16 156.293 150.533 155.216 152.433 154.116 L 152.433 154.116 L 152.433 154.116 C 155.933 152.116 159.907 150.539 164.353 149.386 L 164.353 149.386 L 164.353 149.386 C 168.807 148.239 173.233 147.666 177.633 147.666 L 177.633 147.666 Z M 172.683 213.966 L 172.683 213.966 C 178.683 213.966 183.607 211.939 187.453 207.886 L 187.453 207.886 L 187.453 207.886 C 191.307 203.839 193.233 198.616 193.233 192.216 L 193.233 192.216 L 193.233 187.866 L 190.533 187.866 L 190.533 187.866 C 181.733 187.866 175.033 188.243 170.433 188.996 L 170.433 188.996 L 170.433 188.996 C 165.833 189.743 162.557 190.993 160.603 192.746 L 160.603 192.746 L 160.603 192.746 C 158.657 194.493 157.683 197.066 157.683 200.466 L 157.683 200.466 L 157.683 200.466 C 157.683 204.366 159.11 207.589 161.963 210.136 L 161.963 210.136 L 161.963 210.136 C 164.81 212.689 168.383 213.966 172.683 213.966 L 172.683 213.966 Z M 238.432 223.266 L 238.432 223.266 C 236.632 223.266 235.156 222.743 234.002 221.696 L 234.002 221.696 L 234.002 221.696 C 232.856 220.643 232.282 219.166 232.282 217.266 L 232.282 217.266 L 232.282 122.016 L 232.282 122.016 C 232.282 120.116 232.856 118.643 234.002 117.596 L 234.002 117.596 L 234.002 117.596 C 235.156 116.543 236.632 116.016 238.432 116.016 L 238.432 116.016 L 238.432 116.016 C 240.132 116.016 241.559 116.543 242.712 117.596 L 242.712 117.596 L 242.712 117.596 C 243.859 118.643 244.432 120.116 244.432 122.016 L 244.432 122.016 L 244.432 217.266 L 244.432 217.266 C 244.432 219.166 243.859 220.643 242.712 221.696 L 242.712 221.696 L 242.712 221.696 C 241.559 222.743 240.132 223.266 238.432 223.266 L 238.432 223.266 Z M 278.232 223.266 L 278.232 223.266 C 276.432 223.266 274.955 222.743 273.802 221.696 L 273.802 221.696 L 273.802 221.696 C 272.655 220.643 272.082 219.166 272.082 217.266 L 272.082 217.266 L 272.082 122.016 L 272.082 122.016 C 272.082 120.116 272.655 118.643 273.802 117.596 L 273.802 117.596 L 273.802 117.596 C 274.955 116.543 276.432 116.016 278.232 116.016 L 278.232 116.016 L 278.232 116.016 C 279.932 116.016 281.358 116.543 282.512 117.596 L 282.512 117.596 L 282.512 117.596 C 283.658 118.643 284.232 120.116 284.232 122.016 L 284.232 122.016 L 284.232 217.266 L 284.232 217.266 C 284.232 219.166 283.658 220.643 282.512 221.696 L 282.512 221.696 L 282.512 221.696 C 281.358 222.743 279.932 223.266 278.232 223.266 L 278.232 223.266 Z M 364.531 151.716 L 364.531 151.716 C 365.631 149.316 367.381 148.116 369.781 148.116 L 369.781 148.116 L 369.781 148.116 C 371.281 148.116 372.631 148.616 373.831 149.616 L 373.831 149.616 L 373.831 149.616 C 375.031 150.616 375.631 151.866 375.631 153.366 L 375.631 153.366 L 375.631 153.366 C 375.631 154.266 375.431 155.066 375.031 155.766 L 375.031 155.766 L 332.881 246.666 L 332.881 246.666 C 332.381 247.766 331.655 248.616 330.701 249.216 L 330.701 249.216 L 330.701 249.216 C 329.755 249.816 328.781 250.116 327.781 250.116 L 327.781 250.116 L 327.781 250.116 C 326.281 250.116 324.958 249.643 323.811 248.696 L 323.811 248.696 L 323.811 248.696 C 322.658 247.743 322.081 246.516 322.081 245.016 L 322.081 245.016 L 322.081 245.016 C 322.081 244.216 322.281 243.416 322.681 242.616 L 322.681 242.616 L 333.181 219.966 L 303.481 155.766 L 303.481 155.766 C 303.081 155.066 302.881 154.316 302.881 153.516 L 302.881 153.516 L 302.881 153.516 C 302.881 152.016 303.555 150.716 304.901 149.616 L 304.901 149.616 L 304.901 149.616 C 306.255 148.516 307.731 147.966 309.331 147.966 L 309.331 147.966 L 309.331 147.966 C 310.331 147.966 311.308 148.266 312.261 148.866 L 312.261 148.866 L 312.261 148.866 C 313.208 149.466 313.931 150.316 314.431 151.416 L 314.431 151.416 L 339.481 207.666 L 364.531 151.716 Z M 429.38 213.666 L 429.38 213.666 C 432.88 213.966 434.63 215.566 434.63 218.466 L 434.63 218.466 L 434.63 218.466 C 434.63 220.166 434.007 221.443 432.76 222.296 L 432.76 222.296 L 432.76 222.296 C 431.507 223.143 429.63 223.466 427.13 223.266 L 427.13 223.266 L 423.08 222.966 L 423.08 222.966 C 415.08 222.366 409.18 219.966 405.38 215.766 L 405.38 215.766 L 405.38 215.766 C 401.58 211.566 399.68 205.216 399.68 196.716 L 399.68 196.716 L 399.68 159.066 L 389.63 159.066 L 389.63 159.066 C 387.93 159.066 386.603 158.643 385.65 157.796 L 385.65 157.796 L 385.65 157.796 C 384.703 156.943 384.23 155.816 384.23 154.416 L 384.23 154.416 L 384.23 154.416 C 384.23 152.916 384.703 151.716 385.65 150.816 L 385.65 150.816 L 385.65 150.816 C 386.603 149.916 387.93 149.466 389.63 149.466 L 389.63 149.466 L 399.68 149.466 L 399.68 132.516 L 399.68 132.516 C 399.68 130.616 400.23 129.143 401.33 128.096 L 401.33 128.096 L 401.33 128.096 C 402.43 127.043 403.93 126.516 405.83 126.516 L 405.83 126.516 L 405.83 126.516 C 407.63 126.516 409.08 127.043 410.18 128.096 L 410.18 128.096 L 410.18 128.096 C 411.28 129.143 411.83 130.616 411.83 132.516 L 411.83 132.516 L 411.83 149.466 L 428.48 149.466 L 428.48 149.466 C 430.08 149.466 431.353 149.916 432.3 150.816 L 432.3 150.816 L 432.3 150.816 C 433.253 151.716 433.73 152.916 433.73 154.416 L 433.73 154.416 L 433.73 154.416 C 433.73 155.816 433.253 156.943 432.3 157.796 L 432.3 157.796 L 432.3 157.796 C 431.353 158.643 430.08 159.066 428.48 159.066 L 428.48 159.066 L 411.83 159.066 L 411.83 197.316 L 411.83 197.316 C 411.83 202.816 412.953 206.789 415.2 209.236 L 415.2 209.236 L 415.2 209.236 C 417.453 211.689 420.83 213.066 425.33 213.366 L 425.33 213.366 L 429.38 213.666 Z M 481.929 223.566 L 481.929 223.566 C 475.029 223.566 468.953 222.016 463.699 218.916 L 463.699 218.916 L 463.699 218.916 C 458.453 215.816 454.403 211.389 451.549 205.636 L 451.549 205.636 L 451.549 205.636 C 448.703 199.889 447.279 193.216 447.279 185.616 L 447.279 185.616 L 447.279 185.616 C 447.279 178.016 448.703 171.343 451.549 165.596 L 451.549 165.596 L 451.549 165.596 C 454.403 159.843 458.453 155.416 463.699 152.316 L 463.699 152.316 L 463.699 152.316 C 468.953 149.216 475.029 147.666 481.929 147.666 L 481.929 147.666 L 481.929 147.666 C 488.829 147.666 494.929 149.216 500.229 152.316 L 500.229 152.316 L 500.229 152.316 C 505.529 155.416 509.606 159.843 512.459 165.596 L 512.459 165.596 L 512.459 165.596 C 515.306 171.343 516.729 178.016 516.729 185.616 L 516.729 185.616 L 516.729 185.616 C 516.729 193.216 515.306 199.889 512.459 205.636 L 512.459 205.636 L 512.459 205.636 C 509.606 211.389 505.529 215.816 500.229 218.916 L 500.229 218.916 L 500.229 218.916 C 494.929 222.016 488.829 223.566 481.929 223.566 L 481.929 223.566 Z M 481.929 213.516 L 481.929 213.516 C 489.129 213.516 494.656 211.139 498.509 206.386 L 498.509 206.386 L 498.509 206.386 C 502.356 201.639 504.279 194.716 504.279 185.616 L 504.279 185.616 L 504.279 185.616 C 504.279 176.716 502.329 169.843 498.429 164.996 L 498.429 164.996 L 498.429 164.996 C 494.529 160.143 489.029 157.716 481.929 157.716 L 481.929 157.716 L 481.929 157.716 C 474.829 157.716 469.329 160.143 465.429 164.996 L 465.429 164.996 L 465.429 164.996 C 461.529 169.843 459.579 176.716 459.579 185.616 L 459.579 185.616 L 459.579 185.616 C 459.579 194.616 461.503 201.516 465.349 206.316 L 465.349 206.316 L 465.349 206.316 C 469.203 211.116 474.729 213.516 481.929 213.516 L 481.929 213.516 Z M 570.178 223.566 L 570.178 223.566 C 563.278 223.566 557.202 222.016 551.948 218.916 L 551.948 218.916 L 551.948 218.916 C 546.702 215.816 542.652 211.389 539.798 205.636 L 539.798 205.636 L 539.798 205.636 C 536.952 199.889 535.528 193.216 535.528 185.616 L 535.528 185.616 L 535.528 185.616 C 535.528 178.016 536.952 171.343 539.798 165.596 L 539.798 165.596 L 539.798 165.596 C 542.652 159.843 546.702 155.416 551.948 152.316 L 551.948 152.316 L 551.948 152.316 C 557.202 149.216 563.278 147.666 570.178 147.666 L 570.178 147.666 L 570.178 147.666 C 577.078 147.666 583.178 149.216 588.478 152.316 L 588.478 152.316 L 588.478 152.316 C 593.778 155.416 597.855 159.843 600.708 165.596 L 600.708 165.596 L 600.708 165.596 C 603.555 171.343 604.978 178.016 604.978 185.616 L 604.978 185.616 L 604.978 185.616 C 604.978 193.216 603.555 199.889 600.708 205.636 L 600.708 205.636 L 600.708 205.636 C 597.855 211.389 593.778 215.816 588.478 218.916 L 588.478 218.916 L 588.478 218.916 C 583.178 222.016 577.078 223.566 570.178 223.566 L 570.178 223.566 Z M 570.178 213.516 L 570.178 213.516 C 577.378 213.516 582.905 211.139 586.758 206.386 L 586.758 206.386 L 586.758 206.386 C 590.605 201.639 592.528 194.716 592.528 185.616 L 592.528 185.616 L 592.528 185.616 C 592.528 176.716 590.578 169.843 586.678 164.996 L 586.678 164.996 L 586.678 164.996 C 582.778 160.143 577.278 157.716 570.178 157.716 L 570.178 157.716 L 570.178 157.716 C 563.078 157.716 557.578 160.143 553.678 164.996 L 553.678 164.996 L 553.678 164.996 C 549.778 169.843 547.828 176.716 547.828 185.616 L 547.828 185.616 L 547.828 185.616 C 547.828 194.616 549.752 201.516 553.598 206.316 L 553.598 206.316 L 553.598 206.316 C 557.452 211.116 562.978 213.516 570.178 213.516 L 570.178 213.516 Z" style="white-space: pre; fill: rgb(255, 255, 255);"/>
  </g>
</svg>